<?xml version="1.0" encoding="UTF-8"?>
<svg width="25pt" height="25pt" version="1.1" viewBox="0 0 752 752" xmlns="http://www.w3.org/2000/svg">
 <path d="m560.94 424.04c-12.047 42.305-38.508 79.07-74.805 103.93-36.293 24.852-80.137 36.234-123.94 32.172-43.801-4.0586-84.805-23.309-115.91-54.414-31.105-31.105-50.355-72.109-54.418-115.91-4.0664-43.801 7.3164-87.645 32.168-123.94 24.855-36.297 61.617-62.758 103.93-74.809-15.219 25.793-23.32 55.164-23.48 85.109-0.24609 40.289 13.805 79.363 39.652 110.27 25.848 30.906 61.816 51.645 101.52 58.527 39.695 6.8867 80.551-0.53125 115.29-20.934z"/>
</svg>
