<?xml version="1.0" encoding="UTF-8"?>
<svg width="25pt" height="25pt" version="1.1" viewBox="0 0 752 752" xmlns="http://www.w3.org/2000/svg">
 <g>
  <path d="m489.46 376c0 62.664-50.801 113.46-113.46 113.46-62.66 0-113.46-50.801-113.46-113.46 0-62.66 50.801-113.46 113.46-113.46 62.664 0 113.46 50.801 113.46 113.46"/>
  <path d="m390.8 218.14v-39.465c0-5.2852-2.8203-10.172-7.3984-12.816-4.582-2.6445-10.223-2.6445-14.801 0-4.5781 2.6445-7.3984 7.5312-7.3984 12.816v39.465c0 5.2891 2.8203 10.172 7.3984 12.816 4.5781 2.6445 10.219 2.6445 14.801 0 4.5781-2.6445 7.3984-7.5273 7.3984-12.816z"/>
  <path d="m477.17 274.85c2.7773 2.7695 6.543 4.3242 10.465 4.3242 3.9258 0 7.6875-1.5547 10.469-4.3242l27.863-27.922c3.3945-3.793 4.5977-9.0664 3.1875-13.957-1.4102-4.8945-5.2344-8.7188-10.125-10.125-4.8906-1.4102-10.164-0.20703-13.961 3.1875l-27.898 27.883c-2.7773 2.7734-4.3398 6.5391-4.3398 10.465 0 3.9297 1.5625 7.6953 4.3398 10.469z"/>
  <path d="m573.33 361.2h-39.465c-5.2891 0-10.176 2.8203-12.816 7.3984-2.6445 4.5781-2.6445 10.219 0 14.801 2.6406 4.5781 7.5273 7.3984 12.816 7.3984h39.465c5.2852 0 10.172-2.8203 12.816-7.3984 2.6445-4.582 2.6445-10.223 0-14.801-2.6445-4.5781-7.5312-7.3984-12.816-7.3984z"/>
  <path d="m498.11 477.15c-3.7383-3.7422-9.1914-5.2031-14.297-3.832-5.1094 1.3672-9.1016 5.3594-10.469 10.465-1.3711 5.1094 0.089844 10.562 3.832 14.301l27.898 27.883c3.7969 3.3945 9.0703 4.5977 13.961 3.1875s8.7148-5.2344 10.125-10.125 0.20703-10.164-3.1875-13.961z"/>
  <path d="m390.8 573.33v-39.465c0-5.2891-2.8203-10.176-7.3984-12.816-4.582-2.6445-10.223-2.6445-14.801 0-4.5781 2.6406-7.3984 7.5273-7.3984 12.816v39.465c0 5.2852 2.8203 10.172 7.3984 12.816 4.5781 2.6445 10.219 2.6445 14.801 0 4.5781-2.6445 7.3984-7.5312 7.3984-12.816z"/>
  <path d="m246.93 525.97 27.902-27.922c3.6328-3.7578 5.0156-9.1523 3.6367-14.191-1.3828-5.043-5.3164-8.9805-10.355-10.367-5.0391-1.3828-10.438-0.007812-14.195 3.6211l-27.883 27.961c-3.3945 3.7969-4.5977 9.0703-3.1875 13.961 1.4062 4.8906 5.2305 8.7148 10.125 10.125 4.8906 1.4102 10.164 0.20703 13.957-3.1875z"/>
  <path d="m178.68 361.2c-5.2852 0-10.172 2.8203-12.816 7.3984-2.6445 4.5781-2.6445 10.219 0 14.801 2.6445 4.5781 7.5312 7.3984 12.816 7.3984h39.465c5.2891 0 10.172-2.8203 12.816-7.3984 2.6445-4.582 2.6445-10.223 0-14.801-2.6445-4.5781-7.5273-7.3984-12.816-7.3984z"/>
  <path d="m246.93 226.04c-3.793-3.3945-9.0664-4.5977-13.957-3.1875-4.8945 1.4062-8.7188 5.2305-10.125 10.125-1.4102 4.8906-0.20703 10.164 3.1875 13.957l27.883 27.922c3.7578 3.6289 9.1562 5.0078 14.195 3.6211 5.0391-1.3828 8.9727-5.3242 10.355-10.363 1.3789-5.043-0.003906-10.438-3.6367-14.191z"/>
 </g>
</svg>
