<?xml version="1.0" encoding="UTF-8"?>
<svg width="25pt" height="25pt" version="1.1" viewBox="0 0 752 752" xmlns="http://www.w3.org/2000/svg">
 <g>
  <path d="m162.89 162.89h47.359v47.359h-47.359z"/>
  <path d="m257.61 162.89h47.359v47.359h-47.359z"/>
  <path d="m162.89 257.61h47.359v47.359h-47.359z"/>
  <path d="m257.61 257.61h47.359v47.359h-47.359z"/>
  <path d="m210.25 210.25h47.359v47.359h-47.359z"/>
  <path d="m162.89 447.04h47.359v47.359h-47.359z"/>
  <path d="m257.61 447.04h47.359v47.359h-47.359z"/>
  <path d="m162.89 541.75h47.359v47.359h-47.359z"/>
  <path d="m257.61 541.75h47.359v47.359h-47.359z"/>
  <path d="m210.25 494.4h47.359v47.359h-47.359z"/>
  <path d="m304.96 304.96h47.359v47.359h-47.359z"/>
  <path d="m399.68 304.96h47.359v47.359h-47.359z"/>
  <path d="m304.96 399.68h47.359v47.359h-47.359z"/>
  <path d="m399.68 399.68h47.359v47.359h-47.359z"/>
  <path d="m352.32 352.32h47.359v47.359h-47.359z"/>
  <path d="m447.04 162.89h47.359v47.359h-47.359z"/>
  <path d="m541.75 162.89h47.359v47.359h-47.359z"/>
  <path d="m447.04 257.61h47.359v47.359h-47.359z"/>
  <path d="m541.75 257.61h47.359v47.359h-47.359z"/>
  <path d="m494.4 210.25h47.359v47.359h-47.359z"/>
  <path d="m447.04 447.04h47.359v47.359h-47.359z"/>
  <path d="m541.75 447.04h47.359v47.359h-47.359z"/>
  <path d="m447.04 541.75h47.359v47.359h-47.359z"/>
  <path d="m541.75 541.75h47.359v47.359h-47.359z"/>
  <path d="m494.4 494.4h47.359v47.359h-47.359z"/>
 </g>
</svg>
